<svg version="1.1" xmlns="http://www.w3.org/2000/svg" xmlns:xlink="http://www.w3.org/1999/xlink" width="838.43701171875" height="416"><defs/><g><g transform="translate(-22,-22) scale(1,1)"><rect fill="#C0C0C0" stroke="none" x="385" y="127" width="177.01220703125" height="44" opacity="0.2"/></g><g transform="translate(-22,-22) scale(1,1)"><rect fill="#ffffff" stroke="none" x="378" y="120" width="177.01220703125" height="44"/></g><g transform="translate(-22,-22) scale(1,1)"><path fill="none" stroke="#000000" d="M 378 120 L 555.01220703125 120 L 555.01220703125 164 L 378 164 L 378 120 Z Z" stroke-miterlimit="10"/></g><g transform="translate(-22,-22) scale(1,1)"><rect fill="#ffffff" stroke="none" x="368" y="127" width="20" height="10"/></g><g transform="translate(-22,-22) scale(1,1)"><path fill="none" stroke="#000000" d="M 368 127 L 388 127 L 388 137 L 368 137 L 368 127 Z Z" stroke-miterlimit="10"/></g><g transform="translate(-22,-22) scale(1,1)"><rect fill="#ffffff" stroke="none" x="368" y="147" width="20" height="10"/></g><g transform="translate(-22,-22) scale(1,1)"><path fill="none" stroke="#000000" d="M 368 147 L 388 147 L 388 157 L 368 157 L 368 147 Z Z" stroke-miterlimit="10"/></g><g transform="translate(-22,-22) scale(1,1)"><g><path fill="none" stroke="none"/><text fill="#000000" stroke="none" font-family="Arial" font-size="13px" font-style="normal" font-weight="bold" text-decoration="none" x="404.658935546875" y="139.5">eden-spring-boot-cloud</text></g></g><g transform="translate(-22,-22) scale(1,1)"><rect fill="#C0C0C0" stroke="none" x="65" y="215" width="205.01806640625" height="44" opacity="0.2"/></g><g transform="translate(-22,-22) scale(1,1)"><rect fill="#ffffff" stroke="none" x="58" y="208" width="205.01806640625" height="44"/></g><g transform="translate(-22,-22) scale(1,1)"><path fill="none" stroke="#000000" d="M 58 208 L 263.01806640625 208 L 263.01806640625 252 L 58 252 L 58 208 Z Z" stroke-miterlimit="10"/></g><g transform="translate(-22,-22) scale(1,1)"><rect fill="#ffffff" stroke="none" x="48" y="215" width="20" height="10"/></g><g transform="translate(-22,-22) scale(1,1)"><path fill="none" stroke="#000000" d="M 48 215 L 68 215 L 68 225 L 48 225 L 48 215 Z Z" stroke-miterlimit="10"/></g><g transform="translate(-22,-22) scale(1,1)"><rect fill="#ffffff" stroke="none" x="48" y="235" width="20" height="10"/></g><g transform="translate(-22,-22) scale(1,1)"><path fill="none" stroke="#000000" d="M 48 235 L 68 235 L 68 245 L 48 245 L 48 235 Z Z" stroke-miterlimit="10"/></g><g transform="translate(-22,-22) scale(1,1)"><g><path fill="none" stroke="none"/><text fill="#000000" stroke="none" font-family="Arial" font-size="13px" font-style="normal" font-weight="bold" text-decoration="none" x="86.02685546875" y="227.5">eden-spring-boot-commons</text></g></g><g transform="translate(-22,-22) scale(1,1)"><rect fill="#C0C0C0" stroke="none" x="385" y="39" width="169.8837890625" height="44" opacity="0.2"/></g><g transform="translate(-22,-22) scale(1,1)"><rect fill="#ffffff" stroke="none" x="378" y="32" width="169.8837890625" height="44"/></g><g transform="translate(-22,-22) scale(1,1)"><path fill="none" stroke="#000000" d="M 378 32 L 547.8837890625 32 L 547.8837890625 76 L 378 76 L 378 32 Z Z" stroke-miterlimit="10"/></g><g transform="translate(-22,-22) scale(1,1)"><rect fill="#ffffff" stroke="none" x="368" y="39" width="20" height="10"/></g><g transform="translate(-22,-22) scale(1,1)"><path fill="none" stroke="#000000" d="M 368 39 L 388 39 L 388 49 L 368 49 L 368 39 Z Z" stroke-miterlimit="10"/></g><g transform="translate(-22,-22) scale(1,1)"><rect fill="#ffffff" stroke="none" x="368" y="59" width="20" height="10"/></g><g transform="translate(-22,-22) scale(1,1)"><path fill="none" stroke="#000000" d="M 368 59 L 388 59 L 388 69 L 368 69 L 368 59 Z Z" stroke-miterlimit="10"/></g><g transform="translate(-22,-22) scale(1,1)"><g><path fill="none" stroke="none"/><text fill="#000000" stroke="none" font-family="Arial" font-size="13px" font-style="normal" font-weight="bold" text-decoration="none" x="403.98291015625" y="51.5">eden-spring-boot-data</text></g></g><g transform="translate(-22,-22) scale(1,1)"><rect fill="#C0C0C0" stroke="none" x="49" y="39" width="230.8720703125" height="44" opacity="0.2"/></g><g transform="translate(-22,-22) scale(1,1)"><rect fill="#ffffff" stroke="none" x="42" y="32" width="230.8720703125" height="44"/></g><g transform="translate(-22,-22) scale(1,1)"><path fill="none" stroke="#000000" d="M 42 32 L 272.8720703125 32 L 272.8720703125 76 L 42 76 L 42 32 Z Z" stroke-miterlimit="10"/></g><g transform="translate(-22,-22) scale(1,1)"><rect fill="#ffffff" stroke="none" x="32" y="39" width="20" height="10"/></g><g transform="translate(-22,-22) scale(1,1)"><path fill="none" stroke="#000000" d="M 32 39 L 52 39 L 52 49 L 32 49 L 32 39 Z Z" stroke-miterlimit="10"/></g><g transform="translate(-22,-22) scale(1,1)"><rect fill="#ffffff" stroke="none" x="32" y="59" width="20" height="10"/></g><g transform="translate(-22,-22) scale(1,1)"><path fill="none" stroke="#000000" d="M 32 59 L 52 59 L 52 69 L 32 69 L 32 59 Z Z" stroke-miterlimit="10"/></g><g transform="translate(-22,-22) scale(1,1)"><g><path fill="none" stroke="none"/><text fill="#000000" stroke="none" font-family="Arial" font-size="13px" font-style="normal" font-weight="bold" text-decoration="none" x="70.64892578125" y="51.5">eden-spring-boot-dependencies</text></g></g><g transform="translate(-22,-22) scale(1,1)"><rect fill="#C0C0C0" stroke="none" x="65" y="303" width="212.3369140625" height="44" opacity="0.2"/></g><g transform="translate(-22,-22) scale(1,1)"><rect fill="#ffffff" stroke="none" x="58" y="296" width="212.3369140625" height="44"/></g><g transform="translate(-22,-22) scale(1,1)"><path fill="none" stroke="#000000" d="M 58 296 L 270.3369140625 296 L 270.3369140625 340 L 58 340 L 58 296 Z Z" stroke-miterlimit="10"/></g><g transform="translate(-22,-22) scale(1,1)"><rect fill="#ffffff" stroke="none" x="48" y="303" width="20" height="10"/></g><g transform="translate(-22,-22) scale(1,1)"><path fill="none" stroke="#000000" d="M 48 303 L 68 303 L 68 313 L 48 313 L 48 303 Z Z" stroke-miterlimit="10"/></g><g transform="translate(-22,-22) scale(1,1)"><rect fill="#ffffff" stroke="none" x="48" y="323" width="20" height="10"/></g><g transform="translate(-22,-22) scale(1,1)"><path fill="none" stroke="#000000" d="M 48 323 L 68 323 L 68 333 L 48 333 L 48 323 Z Z" stroke-miterlimit="10"/></g><g transform="translate(-22,-22) scale(1,1)"><g><path fill="none" stroke="none"/><text fill="#000000" stroke="none" font-family="Arial" font-size="13px" font-style="normal" font-weight="bold" text-decoration="none" x="87.521728515625" y="315.5">eden-spring-boot-framework</text></g></g><g transform="translate(-22,-22) scale(1,1)"><rect fill="#C0C0C0" stroke="none" x="377" y="303" width="213.91748046875" height="44" opacity="0.2"/></g><g transform="translate(-22,-22) scale(1,1)"><rect fill="#ffffff" stroke="none" x="370" y="296" width="213.91748046875" height="44"/></g><g transform="translate(-22,-22) scale(1,1)"><path fill="none" stroke="#000000" d="M 370 296 L 583.91748046875 296 L 583.91748046875 340 L 370 340 L 370 296 Z Z" stroke-miterlimit="10"/></g><g transform="translate(-22,-22) scale(1,1)"><rect fill="#ffffff" stroke="none" x="360" y="303" width="20" height="10"/></g><g transform="translate(-22,-22) scale(1,1)"><path fill="none" stroke="#000000" d="M 360 303 L 380 303 L 380 313 L 360 313 L 360 303 Z Z" stroke-miterlimit="10"/></g><g transform="translate(-22,-22) scale(1,1)"><rect fill="#ffffff" stroke="none" x="360" y="323" width="20" height="10"/></g><g transform="translate(-22,-22) scale(1,1)"><path fill="none" stroke="#000000" d="M 360 323 L 380 323 L 380 333 L 360 333 L 360 323 Z Z" stroke-miterlimit="10"/></g><g transform="translate(-22,-22) scale(1,1)"><g><path fill="none" stroke="none"/><text fill="#000000" stroke="none" font-family="Arial" font-size="13px" font-style="normal" font-weight="bold" text-decoration="none" x="400.296142578125" y="315.5">eden-spring-boot-integration</text></g></g><g transform="translate(-22,-22) scale(1,1)"><rect fill="#C0C0C0" stroke="none" x="73" y="127" width="183.89306640625" height="44" opacity="0.2"/></g><g transform="translate(-22,-22) scale(1,1)"><rect fill="#ffffff" stroke="none" x="66" y="120" width="183.89306640625" height="44"/></g><g transform="translate(-22,-22) scale(1,1)"><path fill="none" stroke="#000000" d="M 66 120 L 249.89306640625 120 L 249.89306640625 164 L 66 164 L 66 120 Z Z" stroke-miterlimit="10"/></g><g transform="translate(-22,-22) scale(1,1)"><rect fill="#ffffff" stroke="none" x="56" y="127" width="20" height="10"/></g><g transform="translate(-22,-22) scale(1,1)"><path fill="none" stroke="#000000" d="M 56 127 L 76 127 L 76 137 L 56 137 L 56 127 Z Z" stroke-miterlimit="10"/></g><g transform="translate(-22,-22) scale(1,1)"><rect fill="#ffffff" stroke="none" x="56" y="147" width="20" height="10"/></g><g transform="translate(-22,-22) scale(1,1)"><path fill="none" stroke="#000000" d="M 56 147 L 76 147 L 76 157 L 56 157 L 56 147 Z Z" stroke-miterlimit="10"/></g><g transform="translate(-22,-22) scale(1,1)"><g><path fill="none" stroke="none"/><text fill="#000000" stroke="none" font-family="Arial" font-size="13px" font-style="normal" font-weight="bold" text-decoration="none" x="93.2080078125" y="139.5">eden-spring-boot-parent</text></g></g><g transform="translate(-22,-22) scale(1,1)"><rect fill="#C0C0C0" stroke="none" x="377" y="215" width="192.17041015625" height="44" opacity="0.2"/></g><g transform="translate(-22,-22) scale(1,1)"><rect fill="#ffffff" stroke="none" x="370" y="208" width="192.17041015625" height="44"/></g><g transform="translate(-22,-22) scale(1,1)"><path fill="none" stroke="#000000" d="M 370 208 L 562.17041015625 208 L 562.17041015625 252 L 370 252 L 370 208 Z Z" stroke-miterlimit="10"/></g><g transform="translate(-22,-22) scale(1,1)"><rect fill="#ffffff" stroke="none" x="360" y="215" width="20" height="10"/></g><g transform="translate(-22,-22) scale(1,1)"><path fill="none" stroke="#000000" d="M 360 215 L 380 215 L 380 225 L 360 225 L 360 215 Z Z" stroke-miterlimit="10"/></g><g transform="translate(-22,-22) scale(1,1)"><rect fill="#ffffff" stroke="none" x="360" y="235" width="20" height="10"/></g><g transform="translate(-22,-22) scale(1,1)"><path fill="none" stroke="#000000" d="M 360 235 L 380 235 L 380 245 L 360 245 L 360 235 Z Z" stroke-miterlimit="10"/></g><g transform="translate(-22,-22) scale(1,1)"><g><path fill="none" stroke="none"/><text fill="#000000" stroke="none" font-family="Arial" font-size="13px" font-style="normal" font-weight="bold" text-decoration="none" x="397.382568359375" y="227.5">eden-spring-boot-security</text></g></g><g transform="translate(-22,-22) scale(1,1)"><rect fill="#C0C0C0" stroke="none" x="81" y="391" width="190.5390625" height="44" opacity="0.2"/></g><g transform="translate(-22,-22) scale(1,1)"><rect fill="#ffffff" stroke="none" x="74" y="384" width="190.5390625" height="44"/></g><g transform="translate(-22,-22) scale(1,1)"><path fill="none" stroke="#000000" d="M 74 384 L 264.5390625 384 L 264.5390625 428 L 74 428 L 74 384 Z Z" stroke-miterlimit="10"/></g><g transform="translate(-22,-22) scale(1,1)"><rect fill="#ffffff" stroke="none" x="64" y="391" width="20" height="10"/></g><g transform="translate(-22,-22) scale(1,1)"><path fill="none" stroke="#000000" d="M 64 391 L 84 391 L 84 401 L 64 401 L 64 391 Z Z" stroke-miterlimit="10"/></g><g transform="translate(-22,-22) scale(1,1)"><rect fill="#ffffff" stroke="none" x="64" y="411" width="20" height="10"/></g><g transform="translate(-22,-22) scale(1,1)"><path fill="none" stroke="#000000" d="M 64 411 L 84 411 L 84 421 L 64 421 L 64 411 Z Z" stroke-miterlimit="10"/></g><g transform="translate(-22,-22) scale(1,1)"><g><path fill="none" stroke="none"/><text fill="#000000" stroke="none" font-family="Arial" font-size="13px" font-style="normal" font-weight="bold" text-decoration="none" x="101.29052734375" y="403.5">eden-spring-boot-starters</text></g></g><g transform="translate(-22,-22) scale(1,1)"><rect fill="#C0C0C0" stroke="none" x="665" y="215" width="192.43701171875" height="44" opacity="0.2"/></g><g transform="translate(-22,-22) scale(1,1)"><rect fill="#ffffff" stroke="none" x="658" y="208" width="192.43701171875" height="44"/></g><g transform="translate(-22,-22) scale(1,1)"><path fill="none" stroke="#000000" d="M 658 208 L 850.43701171875 208 L 850.43701171875 252 L 658 252 L 658 208 Z Z" stroke-miterlimit="10"/></g><g transform="translate(-22,-22) scale(1,1)"><rect fill="#ffffff" stroke="none" x="648" y="215" width="20" height="10"/></g><g transform="translate(-22,-22) scale(1,1)"><path fill="none" stroke="#000000" d="M 648 215 L 668 215 L 668 225 L 648 225 L 648 215 Z Z" stroke-miterlimit="10"/></g><g transform="translate(-22,-22) scale(1,1)"><rect fill="#ffffff" stroke="none" x="648" y="235" width="20" height="10"/></g><g transform="translate(-22,-22) scale(1,1)"><path fill="none" stroke="#000000" d="M 648 235 L 668 235 L 668 245 L 648 245 L 648 235 Z Z" stroke-miterlimit="10"/></g><g transform="translate(-22,-22) scale(1,1)"><g><path fill="none" stroke="none"/><text fill="#000000" stroke="none" font-family="Arial" font-size="13px" font-style="normal" font-weight="bold" text-decoration="none" x="686.22998046875" y="227.5">eden-spring-boot-support</text></g></g><g transform="translate(-22,-22) scale(1,1)"><rect fill="#C0C0C0" stroke="none" x="401" y="391" width="165.5927734375" height="44" opacity="0.2"/></g><g transform="translate(-22,-22) scale(1,1)"><rect fill="#ffffff" stroke="none" x="394" y="384" width="165.5927734375" height="44"/></g><g transform="translate(-22,-22) scale(1,1)"><path fill="none" stroke="#000000" d="M 394 384 L 559.5927734375 384 L 559.5927734375 428 L 394 428 L 394 384 Z Z" stroke-miterlimit="10"/></g><g transform="translate(-22,-22) scale(1,1)"><rect fill="#ffffff" stroke="none" x="384" y="391" width="20" height="10"/></g><g transform="translate(-22,-22) scale(1,1)"><path fill="none" stroke="#000000" d="M 384 391 L 404 391 L 404 401 L 384 401 L 384 391 Z Z" stroke-miterlimit="10"/></g><g transform="translate(-22,-22) scale(1,1)"><rect fill="#ffffff" stroke="none" x="384" y="411" width="20" height="10"/></g><g transform="translate(-22,-22) scale(1,1)"><path fill="none" stroke="#000000" d="M 384 411 L 404 411 L 404 421 L 384 421 L 384 411 Z Z" stroke-miterlimit="10"/></g><g transform="translate(-22,-22) scale(1,1)"><g><path fill="none" stroke="none"/><text fill="#000000" stroke="none" font-family="Arial" font-size="13px" font-style="normal" font-weight="bold" text-decoration="none" x="420.011474609375" y="403.5">eden-spring-boot-test</text></g></g><g transform="translate(-22,-22) scale(1,1)"><path fill="none" stroke="#000000" d="M 158 295 L 156 253" stroke-miterlimit="10" stroke-dasharray="3"/></g><g transform="translate(-22,-22) scale(1,1)"><path fill="none" stroke="#000000" d="M 160.68814230973317 262.9509457683021 L 156 253 L 152.27863598639388 263.3513984503659" stroke-miterlimit="10"/></g><g transform="translate(-22,-22) scale(1,1)"><path fill="none" stroke="#000000" d="M 154 207 L 153 165" stroke-miterlimit="10" stroke-dasharray="3"/></g><g transform="translate(-22,-22) scale(1,1)"><path fill="none" stroke="#000000" d="M 157.45022498208755 175.05959728859978 L 153 165 L 149.03357480386518 175.2599937214146" stroke-miterlimit="10"/></g><g transform="translate(-22,-22) scale(1,1)"><path fill="none" stroke="#000000" d="M 152 119 L 152 77" stroke-miterlimit="10" stroke-dasharray="3"/></g><g transform="translate(-22,-22) scale(1,1)"><path fill="none" stroke="#000000" d="M 156.209517756016 87.16267485762415 L 152 77 L 147.790482243984 87.16267485762415" stroke-miterlimit="10"/></g><g transform="translate(-22,-22) scale(1,1)"><path fill="none" stroke="#000000" d="M 416 77 L 312 136 L 312 232 L 200 295" stroke-miterlimit="10" stroke-dasharray="3"/></g><g transform="translate(-22,-22) scale(1,1)"><path fill="none" stroke="#000000" d="M 206.79377540433626 286.34872172708356 L 200 295 L 210.92130219097558 293.6865471255535" stroke-miterlimit="10"/></g><g transform="translate(-22,-22) scale(1,1)"><path fill="none" stroke="#000000" d="M 382 253 L 238 295" stroke-miterlimit="10" stroke-dasharray="3"/></g><g transform="translate(-22,-22) scale(1,1)"><path fill="none" stroke="#000000" d="M 246.5775028916347 288.1133139940899 L 238 295 L 248.93483283500368 296.19558808564057" stroke-miterlimit="10"/></g><g transform="translate(-22,-22) scale(1,1)"><path fill="none" stroke="#000000" d="M 461 165 L 461 207" stroke-miterlimit="10" stroke-dasharray="3"/></g><g transform="translate(-22,-22) scale(1,1)"><path fill="none" stroke="#000000" d="M 456.790482243984 196.83732514237585 L 461 207 L 465.209517756016 196.83732514237585" stroke-miterlimit="10"/></g><g transform="translate(-22,-22) scale(1,1)"><path fill="none" stroke="#000000" d="M 359 318 L 271 318" stroke-miterlimit="10" stroke-dasharray="3"/></g><g transform="translate(-22,-22) scale(1,1)"><path fill="none" stroke="#000000" d="M 281.16267485762415 313.790482243984 L 271 318 L 281.16267485762415 322.209517756016" stroke-miterlimit="10"/></g><g transform="translate(-22,-22) scale(1,1)"><path fill="none" stroke="#000000" d="M 471 383 L 471 341" stroke-miterlimit="10" stroke-dasharray="3"/></g><g transform="translate(-22,-22) scale(1,1)"><path fill="none" stroke="#000000" d="M 475.209517756016 351.16267485762415 L 471 341 L 466.790482243984 351.16267485762415" stroke-miterlimit="10"/></g><g transform="translate(-22,-22) scale(1,1)"><path fill="none" stroke="#000000" d="M 674 207 L 536 165" stroke-miterlimit="10" stroke-dasharray="3"/></g><g transform="translate(-22,-22) scale(1,1)"><path fill="none" stroke="#000000" d="M 546.9480155830877 163.93184514583803 L 536 165 L 544.4967156000725 171.98611651860202" stroke-miterlimit="10"/></g><g transform="translate(-22,-22) scale(1,1)"><path fill="none" stroke="#000000" d="M 711 207 L 495 77" stroke-miterlimit="10" stroke-dasharray="3"/></g><g transform="translate(-22,-22) scale(1,1)"><path fill="none" stroke="#000000" d="M 505.877987996406 78.63382286373002 L 495 77 L 501.5366118517234 85.84718630412567" stroke-miterlimit="10"/></g><g transform="translate(-22,-22) scale(1,1)"><path fill="none" stroke="#000000" d="M 748 253 L 744 368 L 561 394" stroke-miterlimit="10" stroke-dasharray="3"/></g><g transform="translate(-22,-22) scale(1,1)"><path fill="none" stroke="#000000" d="M 570.469504357813 388.4028143484996 L 561 394 L 571.653758675621 396.7381428161491" stroke-miterlimit="10"/></g></g></svg>